<svg width="173" height="34" viewBox="0 0 173 34" fill="none" xmlns="http://www.w3.org/2000/svg">
<path d="M5.57586 33.9609V-2.16284e-05H6.84306V33.9609H5.57586ZM0.000183518 33.9609V-2.16284e-05H1.26738V33.9609H0.000183518ZM2.78802 33.9609V-2.16284e-05H4.05522V33.9609H2.78802ZM8.3637 28.3853V27.1181H22.8098V28.3853H8.3637ZM8.3637 31.1731V29.9059H22.8098V31.1731H8.3637ZM8.3637 33.9609V32.6937H22.8098V33.9609H8.3637ZM31.0684 33.9609V-2.16284e-05H32.3356V33.9609H31.0684ZM25.4927 33.9609V-2.16284e-05H26.7599V33.9609H25.4927ZM28.2805 33.9609V-2.16284e-05H29.5477V33.9609H28.2805ZM42.1234 33.9609V-2.16284e-05H43.3906V33.9609H42.1234ZM36.5477 33.9609V-2.16284e-05H37.8149V33.9609H36.5477ZM39.3355 33.9609V-2.16284e-05H40.6027V33.9609H39.3355ZM69.4526 33.9609V-2.16284e-05H70.7198V33.9609H69.4526ZM63.877 33.9609V-2.16284e-05H65.1442V33.9609H63.877ZM66.6648 33.9609V-2.16284e-05H67.932V33.9609H66.6648ZM55.2178 14.3616L54.4574 13.2211L62.3563 1.77406V4.01278L55.2178 14.3616ZM56.9074 21.6691L44.9112 4.51966V2.36542L57.7099 20.5709L56.9074 21.6691ZM56.9496 16.8115L56.1893 15.671L62.3563 6.8851V9.08158L56.9496 16.8115ZM55.2178 24.1613L44.9112 9.46174V7.22302L55.9781 23.0208L55.2178 24.1613ZM58.6392 19.2192L57.8789 18.1209L62.3563 11.7427V13.9392L58.6392 19.2192ZM53.5282 26.5689L44.9112 14.3193V12.0806L54.2885 25.4707L53.5282 26.5689ZM80.5271 33.9609V-2.16284e-05H81.7943V33.9609H80.5271ZM74.9514 33.9609V-2.16284e-05H76.2186V33.9609H74.9514ZM77.7393 33.9609V-2.16284e-05H79.0065V33.9609H77.7393ZM84.3168 1.26718V-2.16284e-05H110.548V1.26718H84.3168ZM84.3168 4.05502V2.78782H110.548V4.05502H84.3168ZM84.3168 6.84286V5.57566H110.548V6.84286H84.3168ZM99.6077 33.9609V8.19454H100.875V33.9609H99.6077ZM94.032 33.9609V8.19454H95.2992V33.9609H94.032ZM96.8199 33.9609V8.19454H98.0871V33.9609H96.8199ZM118.642 33.9609V-2.16284e-05H119.909V33.9609H118.642ZM113.066 33.9609V-2.16284e-05H114.334V33.9609H113.066ZM115.854 33.9609V-2.16284e-05H117.121V33.9609H115.854ZM121.43 1.26718V-2.16284e-05H138.284V1.26718H121.43ZM121.43 4.05502V2.78782H138.284V4.05502H121.43ZM121.43 6.84286V5.57566H138.284V6.84286H121.43ZM121.43 14.8262V13.559H135.876V14.8262H121.43ZM121.43 17.6141V16.3469H135.876V17.6141H121.43ZM121.43 20.4019V19.1347H135.876V20.4019H121.43ZM121.43 28.3853V27.1181H138.284V28.3853H121.43ZM121.43 31.1731V29.9059H138.284V31.1731H121.43ZM121.43 33.9609V32.6937H138.284V33.9609H121.43ZM150.016 33.9609V32.6937H154.663C157.056 32.6937 159.239 32.3136 161.21 31.5533C163.209 30.7648 164.941 29.6665 166.405 28.2585C167.87 26.8505 168.996 25.1891 169.785 23.2742C170.601 21.3593 171.009 19.2614 171.009 16.9805C171.009 14.6995 170.601 12.6016 169.785 10.6867C168.996 8.77182 167.87 7.11038 166.405 5.70238C164.941 4.29438 163.209 3.21022 161.21 2.4499C159.239 1.66142 157.056 1.26718 154.663 1.26718H150.016V-2.16284e-05H154.705C157.267 -2.16284e-05 159.619 0.422378 161.759 1.26718C163.899 2.11198 165.758 3.2947 167.335 4.81534C168.912 6.33598 170.137 8.12414 171.009 10.1798C171.882 12.2355 172.319 14.5024 172.319 16.9805C172.319 19.4585 171.882 21.7395 171.009 23.8233C170.137 25.879 168.912 27.6672 167.335 29.1878C165.758 30.7085 163.899 31.8912 161.759 32.736C159.619 33.5526 157.267 33.9609 154.705 33.9609H150.016ZM147.228 33.9609V-2.16284e-05H148.496V33.9609H147.228ZM141.653 33.9609V-2.16284e-05H142.92V33.9609H141.653ZM144.441 33.9609V-2.16284e-05H145.708V33.9609H144.441ZM150.016 31.1731V29.9059H154.663C157.338 29.9059 159.689 29.3568 161.717 28.2585C163.744 27.1603 165.335 25.6397 166.49 23.6966C167.644 21.7254 168.222 19.4867 168.222 16.9805C168.222 14.4461 167.644 12.2073 166.49 10.2643C165.335 8.32126 163.744 6.80062 161.717 5.70238C159.689 4.60414 157.338 4.05502 154.663 4.05502H150.016V2.78782H154.705C157.605 2.78782 160.168 3.40734 162.393 4.64638C164.617 5.85726 166.363 7.53278 167.63 9.67294C168.897 11.7849 169.531 14.2208 169.531 16.9805C169.531 19.7401 168.897 22.1901 167.63 24.3302C166.363 26.4704 164.617 28.1459 162.393 29.3568C160.168 30.5677 157.605 31.1731 154.705 31.1731H150.016ZM150.016 28.3853V27.1181H154.663C156.803 27.1181 158.675 26.6957 160.281 25.8509C161.886 25.0061 163.139 23.8233 164.04 22.3027C164.941 20.7539 165.392 18.9798 165.392 16.9805C165.392 14.9529 164.941 13.1789 164.04 11.6582C163.139 10.1376 161.886 8.95486 160.281 8.11006C158.675 7.26526 156.803 6.84286 154.663 6.84286H150.016V5.57566H154.705C157.07 5.57566 159.154 6.06846 160.956 7.05406C162.759 8.0115 164.167 9.3491 165.18 11.0669C166.194 12.7565 166.701 14.7277 166.701 16.9805C166.701 19.2333 166.194 21.2185 165.18 22.9363C164.167 24.6541 162.759 25.9917 160.956 26.9491C159.154 27.9065 157.07 28.3853 154.705 28.3853H150.016Z" fill="white"/>
</svg>
