<svg width="1535" height="720" viewBox="0 0 1535 720" fill="none" xmlns="http://www.w3.org/2000/svg">
<path d="M71 300L46 240H71H96L121 300L96 360H71H46L71 300Z" fill="white" fill-opacity="0.06"/>
<path d="M162 300L137 240H162H187L212 300L187 360H162H137L162 300Z" fill="white" fill-opacity="0.06"/>
<path d="M253 300L228 240H253H278L303 300L278 360H253H228L253 300Z" fill="white" fill-opacity="0.06"/>
<path d="M344 300L319 240H344H369L394 300L369 360H344H319L344 300Z" fill="white" fill-opacity="0.06"/>
<path d="M435 300L410 240H435H460L485 300L460 360H435H410L435 300Z" fill="white" fill-opacity="0.06"/>
<path d="M526 300L501 240H526H551L576 300L551 360H526H501L526 300Z" fill="white" fill-opacity="0.06"/>
<path d="M617 300L592 240H617H642L667 300L642 360H617H592L617 300Z" fill="white" fill-opacity="0.06"/>
<path d="M708 300L683 240H708H733L758 300L733 360H708H683L708 300Z" fill="white" fill-opacity="0.06"/>
<path d="M116 180L91 120H116H141L166 180L141 240H116H91L116 180Z" fill="white" fill-opacity="0.06"/>
<path d="M207 180L182 120H207H232L257 180L232 240H207H182L207 180Z" fill="white" fill-opacity="0.06"/>
<path d="M298 180L273 120H298H323L348 180L323 240H298H273L298 180Z" fill="white" fill-opacity="0.06"/>
<path d="M389 180L364 120H389H414L439 180L414 240H389H364L389 180Z" fill="white" fill-opacity="0.06"/>
<path d="M480 180L455 120H480H505L530 180L505 240H480H455L480 180Z" fill="white" fill-opacity="0.06"/>
<path d="M571 180L546 120H571H596L621 180L596 240H571H546L571 180Z" fill="white" fill-opacity="0.06"/>
<path d="M662 180L637 120H662H687L712 180L687 240H662H637L662 180Z" fill="white" fill-opacity="0.06"/>
<path d="M753 180L728 120H753H778L803 180L778 240H753H728L753 180Z" fill="white" fill-opacity="0.06"/>
<path d="M70 60L45 0H70H95L120 60L95 120H70H45L70 60Z" fill="white" fill-opacity="0.06"/>
<path d="M161 60L136 0H161H186L211 60L186 120H161H136L161 60Z" fill="white" fill-opacity="0.06"/>
<path d="M252 60L227 0H252H277L302 60L277 120H252H227L252 60Z" fill="white" fill-opacity="0.06"/>
<path d="M343 60L318 0H343H368L393 60L368 120H343H318L343 60Z" fill="white" fill-opacity="0.06"/>
<path d="M434 60L409 0H434H459L484 60L459 120H434H409L434 60Z" fill="white" fill-opacity="0.06"/>
<path d="M525 60L500 0H525H550L575 60L550 120H525H500L525 60Z" fill="white" fill-opacity="0.06"/>
<path d="M616 60L591 0H616H641L666 60L641 120H616H591L616 60Z" fill="white" fill-opacity="0.06"/>
<path d="M707 60L682 0H707H732L757 60L732 120H707H682L707 60Z" fill="white" fill-opacity="0.06"/>
<path d="M26 660L1 600H26H51L76 660L51 720H26H1L26 660Z" fill="white" fill-opacity="0.06"/>
<path d="M117 660L92 600H117H142L167 660L142 720H117H92L117 660Z" fill="white" fill-opacity="0.06"/>
<path d="M208 660L183 600H208H233L258 660L233 720H208H183L208 660Z" fill="white" fill-opacity="0.06"/>
<path d="M299 660L274 600H299H324L349 660L324 720H299H274L299 660Z" fill="white" fill-opacity="0.06"/>
<path d="M390 660L365 600H390H415L440 660L415 720H390H365L390 660Z" fill="white" fill-opacity="0.06"/>
<path d="M481 660L456 600H481H506L531 660L506 720H481H456L481 660Z" fill="white" fill-opacity="0.06"/>
<path d="M572 660L547 600H572H597L622 660L597 720H572H547L572 660Z" fill="white" fill-opacity="0.06"/>
<path d="M663 660L638 600H663H688L713 660L688 720H663H638L663 660Z" fill="white" fill-opacity="0.06"/>
<path d="M71 540L46 480H71H96L121 540L96 600H71H46L71 540Z" fill="white" fill-opacity="0.06"/>
<path d="M162 540L137 480H162H187L212 540L187 600H162H137L162 540Z" fill="white" fill-opacity="0.06"/>
<path d="M253 540L228 480H253H278L303 540L278 600H253H228L253 540Z" fill="white" fill-opacity="0.06"/>
<path d="M344 540L319 480H344H369L394 540L369 600H344H319L344 540Z" fill="white" fill-opacity="0.06"/>
<path d="M435 540L410 480H435H460L485 540L460 600H435H410L435 540Z" fill="white" fill-opacity="0.06"/>
<path d="M526 540L501 480H526H551L576 540L551 600H526H501L526 540Z" fill="white" fill-opacity="0.06"/>
<path d="M617 540L592 480H617H642L667 540L642 600H617H592L617 540Z" fill="white" fill-opacity="0.06"/>
<path d="M708 540L683 480H708H733L758 540L733 600H708H683L708 540Z" fill="white" fill-opacity="0.06"/>
<path d="M25 420L0 360H25H50L75 420L50 480H25H0L25 420Z" fill="white" fill-opacity="0.06"/>
<path d="M116 420L91 360H116H141L166 420L141 480H116H91L116 420Z" fill="white" fill-opacity="0.06"/>
<path d="M207 420L182 360H207H232L257 420L232 480H207H182L207 420Z" fill="white" fill-opacity="0.06"/>
<path d="M298 420L273 360H298H323L348 420L323 480H298H273L298 420Z" fill="white" fill-opacity="0.06"/>
<path d="M389 420L364 360H389H414L439 420L414 480H389H364L389 420Z" fill="white" fill-opacity="0.06"/>
<path d="M480 420L455 360H480H505L530 420L505 480H480H455L480 420Z" fill="white" fill-opacity="0.06"/>
<path d="M571 420L546 360H571H596L621 420L596 480H571H546L571 420Z" fill="white" fill-opacity="0.06"/>
<path d="M662 420L637 360H662H687L712 420L687 480H662H637L662 420Z" fill="white" fill-opacity="0.06"/>
<path d="M803 300L778 240H803H828L853 300L828 360H803H778L803 300Z" fill="white" fill-opacity="0.06"/>
<path d="M894 300L869 240H894H919L944 300L919 360H894H869L894 300Z" fill="white" fill-opacity="0.06"/>
<path d="M985 300L960 240H985H1010L1035 300L1010 360H985H960L985 300Z" fill="white" fill-opacity="0.06"/>
<path d="M1076 300L1051 240H1076H1101L1126 300L1101 360H1076H1051L1076 300Z" fill="white" fill-opacity="0.06"/>
<path d="M1167 300L1142 240H1167H1192L1217 300L1192 360H1167H1142L1167 300Z" fill="white" fill-opacity="0.06"/>
<path d="M1258 300L1233 240H1258H1283L1308 300L1283 360H1258H1233L1258 300Z" fill="white" fill-opacity="0.06"/>
<path d="M1349 300L1324 240H1349H1374L1399 300L1374 360H1349H1324L1349 300Z" fill="white" fill-opacity="0.06"/>
<path d="M1440 300L1415 240H1440H1465L1490 300L1465 360H1440H1415L1440 300Z" fill="white" fill-opacity="0.06"/>
<path d="M848 180L823 120H848H873L898 180L873 240H848H823L848 180Z" fill="white" fill-opacity="0.06"/>
<path d="M939 180L914 120H939H964L989 180L964 240H939H914L939 180Z" fill="white" fill-opacity="0.06"/>
<path d="M1030 180L1005 120H1030H1055L1080 180L1055 240H1030H1005L1030 180Z" fill="white" fill-opacity="0.06"/>
<path d="M1121 180L1096 120H1121H1146L1171 180L1146 240H1121H1096L1121 180Z" fill="white" fill-opacity="0.06"/>
<path d="M1212 180L1187 120H1212H1237L1262 180L1237 240H1212H1187L1212 180Z" fill="white" fill-opacity="0.06"/>
<path d="M1303 180L1278 120H1303H1328L1353 180L1328 240H1303H1278L1303 180Z" fill="white" fill-opacity="0.06"/>
<path d="M1394 180L1369 120H1394H1419L1444 180L1419 240H1394H1369L1394 180Z" fill="white" fill-opacity="0.06"/>
<path d="M1485 180L1460 120H1485H1510L1535 180L1510 240H1485H1460L1485 180Z" fill="white" fill-opacity="0.06"/>
<path d="M802 60L777 0H802H827L852 60L827 120H802H777L802 60Z" fill="white" fill-opacity="0.06"/>
<path d="M893 60L868 0H893H918L943 60L918 120H893H868L893 60Z" fill="white" fill-opacity="0.06"/>
<path d="M984 60L959 0H984H1009L1034 60L1009 120H984H959L984 60Z" fill="white" fill-opacity="0.06"/>
<path d="M1075 60L1050 0H1075H1100L1125 60L1100 120H1075H1050L1075 60Z" fill="white" fill-opacity="0.06"/>
<path d="M1166 60L1141 0H1166H1191L1216 60L1191 120H1166H1141L1166 60Z" fill="white" fill-opacity="0.06"/>
<path d="M1257 60L1232 0H1257H1282L1307 60L1282 120H1257H1232L1257 60Z" fill="white" fill-opacity="0.06"/>
<path d="M1348 60L1323 0H1348H1373L1398 60L1373 120H1348H1323L1348 60Z" fill="white" fill-opacity="0.06"/>
<path d="M1439 60L1414 0H1439H1464L1489 60L1464 120H1439H1414L1439 60Z" fill="white" fill-opacity="0.06"/>
<path d="M754 660L729 600H754H779L804 660L779 720H754H729L754 660Z" fill="white" fill-opacity="0.06"/>
<path d="M845 660L820 600H845H870L895 660L870 720H845H820L845 660Z" fill="white" fill-opacity="0.06"/>
<path d="M936 660L911 600H936H961L986 660L961 720H936H911L936 660Z" fill="white" fill-opacity="0.06"/>
<path d="M1027 660L1002 600H1027H1052L1077 660L1052 720H1027H1002L1027 660Z" fill="white" fill-opacity="0.06"/>
<path d="M1118 660L1093 600H1118H1143L1168 660L1143 720H1118H1093L1118 660Z" fill="white" fill-opacity="0.06"/>
<path d="M1209 660L1184 600H1209H1234L1259 660L1234 720H1209H1184L1209 660Z" fill="white" fill-opacity="0.06"/>
<path d="M1300 660L1275 600H1300H1325L1350 660L1325 720H1300H1275L1300 660Z" fill="white" fill-opacity="0.06"/>
<path d="M1391 660L1366 600H1391H1416L1441 660L1416 720H1391H1366L1391 660Z" fill="white" fill-opacity="0.06"/>
<path d="M799 540L774 480H799H824L849 540L824 600H799H774L799 540Z" fill="white" fill-opacity="0.06"/>
<path d="M890 540L865 480H890H915L940 540L915 600H890H865L890 540Z" fill="white" fill-opacity="0.06"/>
<path d="M981 540L956 480H981H1006L1031 540L1006 600H981H956L981 540Z" fill="white" fill-opacity="0.06"/>
<path d="M1072 540L1047 480H1072H1097L1122 540L1097 600H1072H1047L1072 540Z" fill="white" fill-opacity="0.06"/>
<path d="M1163 540L1138 480H1163H1188L1213 540L1188 600H1163H1138L1163 540Z" fill="white" fill-opacity="0.06"/>
<path d="M1254 540L1229 480H1254H1279L1304 540L1279 600H1254H1229L1254 540Z" fill="white" fill-opacity="0.06"/>
<path d="M1345 540L1320 480H1345H1370L1395 540L1370 600H1345H1320L1345 540Z" fill="white" fill-opacity="0.06"/>
<path d="M1436 540L1411 480H1436H1461L1486 540L1461 600H1436H1411L1436 540Z" fill="white" fill-opacity="0.06"/>
<path d="M753 420L728 360H753H778L803 420L778 480H753H728L753 420Z" fill="white" fill-opacity="0.06"/>
<path d="M844 420L819 360H844H869L894 420L869 480H844H819L844 420Z" fill="white" fill-opacity="0.06"/>
<path d="M935 420L910 360H935H960L985 420L960 480H935H910L935 420Z" fill="white" fill-opacity="0.06"/>
<path d="M1026 420L1001 360H1026H1051L1076 420L1051 480H1026H1001L1026 420Z" fill="white" fill-opacity="0.06"/>
<path d="M1117 420L1092 360H1117H1142L1167 420L1142 480H1117H1092L1117 420Z" fill="white" fill-opacity="0.06"/>
<path d="M1208 420L1183 360H1208H1233L1258 420L1233 480H1208H1183L1208 420Z" fill="white" fill-opacity="0.06"/>
<path d="M1299 420L1274 360H1299H1324L1349 420L1324 480H1299H1274L1299 420Z" fill="white" fill-opacity="0.06"/>
<path d="M1390 420L1365 360H1390H1415L1440 420L1415 480H1390H1365L1390 420Z" fill="white" fill-opacity="0.06"/>
</svg>
